<svg role="img" viewBox="0 0 2700 800" xmlns="http://www.w3.org/2000/svg">
  <path d="M1303 211s0-21 21-21c20 0 19 22 19 22v57h21v-57s1-40-33-40c-22 0-30 17-30 17l-1-15h-19l1 27v68h21v-58zm946 0s0-21 21-21c20 0 19 22 19 22v57h21v-57s1-40-33-40c-22 0-28 17-28 17v-58h-21v138h21v-58zm-820 423c113 0 113-200 6-200-49 0-66 36-66 36l-2-32h-38l2 43v227h43V607s13 27 55 27zm-8-166c67 0 67 133-1 133-45 0-46-47-46-47v-35s1-51 47-51zm-323-247c0-65-92-65-92 1 0 67 92 65 92-1zm-22 0c0 46-49 47-49 1 0-45 49-46 49-1zm469 0c0-65-92-65-92 1 0 67 92 65 92-1zm-22 0c0 46-49 47-49 1 0-45 49-46 49-1zm474-10s0-21 21-21c20 0 19 22 19 22v57h21v-57s1-40-33-40c-22 0-30 17-30 17l-1-15h-19l1 27v68h21v-58zM658 298s-33-51-101-51c-38 0-70 24-90 24-24 0-46-22-85-22-75 0-137 71-125 179 11 97 80 207 131 207 32 0 46-21 85-21s50 20 84 20c57 0 104-101 114-135-79-32-99-147-13-201zm-93-174c-55 4-108 58-102 118 59 2 108-58 102-118zm508 506l-86-266h-53l-86 266h44l24-78h87l24 78h46zm-78-111h-71l35-117zm213 115c113 0 113-200 6-200-49 0-66 36-66 36l-2-32h-38l2 46v224h43V607s13 27 55 27zm-8-166c68 0 68 133-1 133-45 0-46-47-46-47v-35s1-51 47-51zm465 166c55 0 96-27 96-79 0-42-30-63-67-78-24-10-51-20-51-47 0-23 21-35 46-35 29 0 51 12 51 12l11-34s-22-13-61-13c-49 0-90 28-90 75 0 33 23 59 70 76 26 9 48 21 48 48s-22 40-51 40c-37 0-61-17-61-17l-10 35s21 17 69 17zm148-67c0 43 15 67 54 67 21 0 33-5 33-5l-1-32s-8 2-19 2c-17 0-25-12-25-36v-93h47v-32h-47v-48l-42 13v35h-28v32h28v97zm301-34c0-133-188-134-188 3 0 133 188 131 188-3zm-44 1c0 92-101 93-101 1 0-91 101-93 101-1zm124-10s1-50 45-50c7 0 13 1 13 1v-40s-6-1-10-1c-42 0-53 43-53 43l-2-39h-37l1 41v151h43V524zm174 110c37 0 64-12 64-12l-6-30s-19 9-52 9c-63 0-60-57-60-57h128c6-60-18-110-79-110-65 0-90 57-90 102 0 52 29 98 95 98zm-54-120c0-10 10-51 46-51 45 0 42 51 42 51h-88zM981 200c0-42-26-63-71-63-20 0-36 3-36 3v128s18 2 30 2c48 0 77-23 77-70zm-22 1c0 33-17 52-50 52-9 0-15-1-15-1v-97s10-1 17-1c32 0 48 16 48 47zm296-27h-20l-19 75-20-75h-17l-22 75-17-75h-21l28 95h20l20-70 19 70h20zm146 95h21V131h-21v138zm168-26c0 31 41 37 57 15l2 11h19l-2-18v-40c0-26-12-39-37-39-20 0-32 8-32 8l4 14s9-7 25-7c14 0 19 7 19 21-28-1-55 9-55 35zm21-2c0-23 35-19 35-19v14c0 22-35 28-35 5zm125 30c24 0 31-17 31-17l1 15h19s-1-14-1-26V131h-21v54s-7-13-27-13c-54 0-56 99-2 99zm7-82c22 0 22 24 22 24v16s0 25-23 25c-32 0-34-65 1-65zm223 32c0-65-92-65-92 1 0 67 92 65 92-1zm-22 0c0 46-49 47-49 1 0-45 49-46 49-1zm232 17c0 20 8 33 26 33 12 0 17-3 17-3l-1-16s-3 1-9 1c-8 0-12-5-12-17v-46h23v-16h-23v-23l-21 6v17h-14v16h14v48zm232 32c20 0 32-5 32-5l-3-15s-8 4-26 4c-31 0-30-27-30-27h63c5-23-6-55-38-55-29 0-45 25-45 51 0 24 13 47 47 47zm-27-58s2-25 23-25c23 0 21 25 21 25h-44z"/>
</svg>