<svg viewBox="0 0 800 800" xmlns="http://www.w3.org/2000/svg">
  <path fill="#fff" d="M0 0h800v800H0z"/>
  <circle fill="#c60c30" cx="400" cy="400" r="200"/>
  <path fill="#003478" d="M234 289c-30 46-19 109 27 139s109 18 139-28 93-58 139-28 57 93 27 139c-61 91-186 116-277 55s-116-186-55-277z"/>
  <path d="M756 153l-28 18-51-76 28-19 51 77zm-83 55l-28 19-51-77 28-18 51 76zM123 95L12 261l-12-8v-34L95 76l28 19zm41 28L53 289l-27-18 111-167 27 19zm610 148l-27 18-111-166 27-19 111 167zm-92-49l51 76-28 19-51-76 28-19zm-476-72L95 317l-28-19 111-166 28 18zm448 409l51-76 28 19-51 76-28-19zm-550 28l-28 19-50-77 27-18 51 76zm592 0l51-76 27 18-50 77-28-19zm41 28l51-76 12 8v34l-35 52-28-18zm-92-42l28 19-51 76-28-18 51-77zm-439 77l-28 18L67 502l28-19 111 167zm-93-49l51 76-27 19-51-76 27-19zm574 0l27 19-51 76-27-19 51-76zM123 705l-28 19L0 581v-34l12-8 111 166zm605-76l28 18-51 77-28-19 51-76zm72-410v34l-12 8-51-76 28-18 35 52z"/>
</svg>
