<svg viewBox="0 0 800 800" xmlns="http://www.w3.org/2000/svg"><path fill="red" d="M300 0h500v800H300z"/><path fill="#060" d="M0 0h300v800H0z"/><path d="M300 203c107 0 197 87 198 196 0 114-90 200-198 200-109 0-198-88-198-197 0-110 90-199 198-199zM175 526c27 27 67 49 115 52v-37c-49-3-85-8-115-15zm136 15v37c45-4 86-23 114-51-35 9-69 12-114 14zm77-38c-4 4-8 8-12 11 9-1 18-3 27-4-5-2-10-4-15-7zm-164 11c-9-8-17-18-24-28-17 3-31 7-46 13l1 2c23 5 45 10 69 13zm-82-34c14-6 32-11 48-14-4-9-7-19-8-29-24-4-43-9-57-13 3 21 9 39 17 56zm334-55c-14 4-35 9-56 12 17 13 32 24 42 34 6-14 12-30 14-46zm-57-40v30c18-3 41-8 58-13v-2c-18-7-38-12-58-15zm-237 0c-20 3-41 8-59 15v2c20 6 47 11 59 13v-30zm237-22c21 4 42 10 56 15-3-21-8-39-16-55-10 3-24 6-40 9v31zm-287-17c-3 10-5 20-7 31 10-3 22-7 35-10-11-8-21-15-28-21zm287-50v15c12-2 21-5 29-7 0-1-1-1-1-2-8-2-18-4-28-6zm-238-1c-2 0-5 1-7 2 2 1 7 2 7 2v-4zm0-25l-6 6 6-1v-5zm238 0v5l6 1-6-6zm-108-5h102c-25-21-60-38-102-41v41zm-21 0v-41c-42 3-76 20-102 41h102z" fill="#e8e800"/><path d="M186 423c0 62 52 114 114 114 63 0 114-51 114-114V270H186v153zm114 69c-37 0-68-32-68-68V316h136v108c0 38-31 68-68 68zm92-11l-23 22-22-22 22-23 23 23zm-183 0l22-23 23 23-23 22-22-22zm166-110h32v32h-32v-32zm-149 32h-32v-32h32v32zm149-126h32v32h-32v-32zm-91 0h32v32h-32v-32zm-59 32h-32v-32h32v32z" fill="red"/><path d="M300 474c-8 0-15-8-15-17v-21h30v21c0 9-6 17-15 17zm0-52c-8 0-15-7-15-16v-22h30v22c0 9-6 16-15 16zm42 0c-8 0-15-7-15-16v-22h30v22c0 9-6 16-15 16zm-84 0c-8 0-15-7-15-16v-22h30v22c0 9-6 16-15 16zm42-52c-8 0-15-7-15-16v-21h30v21c0 9-6 16-15 16z" fill="#003cb3"/></svg>