<svg viewBox="0 0 800 800" fill="#009b3a"><path d="M0 0h800v800H0z"/><path d="M33 400l367 234 367-234-367-234L33 400z" fill="#fedf00"/><circle fill="#002776" cx="400" cy="400" r="155"/><path fill="#fff" d="M405 522v-3l2-1-3-1v-2l-2 2-2 1 1 1v3l2-2 2 2zm78-3v-3l2-2-3-1-1-3-2 3h-3l2 3-1 3 3-1 3 1zm-31-1v-6l4-4-6-1-2-5-3 5-5 1 4 4-1 5 5-2 4 3zm31-13l-1-3 3-2-3-1-2-3-2 3h-3l2 3v3l3-1 3 1zm-133-13l-1-6 4-4-6-1-2-5-2 5-6 1 4 4-1 5 5-2 5 3zm133-4v-3l2-2h-3l-1-3-2 3h-3l3 2-1 3 3-1 2 1zm12 0v-3l2-2h-3l-1-3-1 3h-3l2 2-1 3 3-1 2 1zm-57 0v-3l2-2h-3l-1-3-1 3h-3l2 2-1 3 3-1 2 1zm22 0v-3l2-2h-3l-1-3-1 3h-3l2 2-1 3 3-1 2 1zm49-3l-1-4 3-2-4-1-1-3-2 3-3 1 2 2-1 4 4-2 3 2zm-101-9l-1-5 4-3-5-1-2-4-2 4-5 1 4 3-1 5 4-2 4 2zm-91-2l-1-4 3-2-4-1-1-3-2 3h-4l3 3-1 4 4-2 3 2zm196-2l-1-3 3-2h-3l-2-3-1 3h-3l2 2-1 3 3-2 3 2zm-1-11l-1-5 4-3-5-1-2-5-2 5-5 1 4 3-1 5 4-3 4 3zm18-3v-3l2-2h-3l-1-3-1 3h-3l2 2-1 3 3-1 2 1zm-259-8l-1-3-2 3-4 1 3 2-1 4 3-2 4 2-1-3 3-3-4-1zm52 7l-1-3 3-3-3-1-2-3-2 3-3 1 2 2-1 4 4-2 3 2zm78-1v-3l2-2h-3l-1-3-1 3h-3l2 2-1 3 3-2 2 2zm44-98l4-1 4 2-1-5 4-3-5-1-2-4-2 4-5 1 3 3-1 4c-53-21-115-31-186-21-3 8-6 16-8 24 120-21 226 22 298 86 3-8 4-16 5-24-32-27-68-50-108-65zm-150 88l-1-6 4-3-5-1-3-6-2 5-6 1 4 4-1 5 5-2 5 3zm126-3v-3l2-3h-3l-2-4-1 4h-4l3 3-1 3 3-1 3 1zm-30 0l-1-3 3-3h-4l-1-4-2 4h-4l3 3-1 3 3-1 4 1zm-84-10v-3l2-1-3-1v-2l-2 2-2 1 2 1-1 3 2-1 2 1zm99-3l-1-5 4-4-5-1-2-5-3 5h-5l4 4-1 6 4-3 5 3zm-56-15l-1-5 4-4-6-1-2-5-2 5h-6l4 4-1 6 5-3 5 3zm94-15v-3l2-3-3-1-2-3-2 3-4 1 3 2-1 4 4-1 3 1zm-164-17l-1-6 4-4-5-1-3-5-2 5-6 1 4 4-1 5 5-2 5 3z"/><path d="M534 420c6-8 16 0 10 8-5 7-17 1-10-8zm2 2c-4 7 4 8 6 4 4-7-4-8-6-4zm-17-9c-1 1 0 3 2 4s2 1 3 0c2-2-7-7-4-11 2-3 5-1 7 0 4 2 5 5 3 8l-2-2c1-1-1-3-2-4s-2-1-3 0c-1 2 7 7 4 11-2 3-4 2-7 0-4-2-5-5-3-8l2 2zm-16-11c-1 1 0 3 2 4s3 1 4 0c1-2-8-6-5-10 2-4 6-1 8 0s4 4 2 7l-2-2c1-1-1-3-2-4s-2-1-3 0c-2 2 8 6 5 11-2 3-6 2-8 0-2-1-5-4-3-7l2 1zm-21-7l7-13 11 7-1 2-9-5-1 3 7 4-1 2-8-4-2 3 10 5-2 3-11-7zm-7-9l-5-3-2 5-3-1 7-13 8 3c4 2 2 8-2 9 0 2-1 5-2 6l-2-1c1-1 1-3 1-5zm-15-5c-2 2-5 1-7 0s-4-5-2-9c3-6 10-5 12-1l-2 2c-2-4-5-3-7 0-1 2-1 5 1 6 1 1 4 0 5-1l-3-1 1-2 5 3-3 7-2-1s1-2 2-3zm11 0l5 2c3 1 4-2 2-3l-5-3-2 4zm-38-15c3-10 15-5 13 3-3 10-16 6-13-3zm3 0c-2 7 4 8 7 3s-6-8-7-3zm-21 1h-2l4-14 8 2c6 1 3 8 0 9 1 2 1 4 0 6h-3c1-1 1-4 0-6l-5-2-2 5zm-18-5h-2l4-14 8 2c4 1 5 10-4 8l-4-1-2 5zm21-2l5 1c3 0 3-3 0-4l-4-1-1 4zm-51-4l2-13 10 2v2l-8-1-1 3 7 1v2l-7-1v3l8 2v2l-11-2zm32-2l4 1c5 1 5-2 2-3l-5-1-1 3zm-138-4c-4-10 9-15 12-5 3 11-9 13-12 5zm78 3h-3l1-15h4l2 11 4-10h4l-2 15h-2l1-10-4 9h-3l-2-10v10zm-51-6l-6 1 1 5h-3l-1-14 8-1c6-1 7 8 3 8 2 1 2 5 2 7h-2c0-1-1-5-2-6zm-25 1c1 6 9 5 8-1-1-5-9-6-8 1zm68 4h-14l1-15 12 1v2h-10v3h8v3h-8v3l11 1v2zm-26 0h-6l-1-15h7c3 0 7 3 7 7v2c0 4-4 6-7 6zm0-12h-4v9h4c2 0 4-2 4-4v-1c0-2-2-4-4-4zm-18 1h-5v4h4c3 0 5-4 1-4z"/></svg>