<svg viewBox="0 0 900 900" fill="#008"><path fill="#fff" d="M0 300h900v300H0z"/><path fill="#138808" d="M0 600h900v300H0z"/><path fill="#f93" d="M0 0h900v300H0z"/><circle cx="450" cy="450" r="120"/><circle fill="#fff" cx="450" cy="450" r="104"/><circle cx="450" cy="450" r="21"/><path d="M450 555l-4-63 4-30 4 30-4 63zm-27-4l13-61 11-28-4 30-20 59zm-25-10l28-56 18-25-12 28-34 53zm-22-17l42-47 24-19-19 24-47 42zm-17-22l53-34 28-12-25 18-56 28zm-10-25l59-20 30-4-28 11-61 13zm-4-27l63-4 30 4-30 4-63-4zm4-27l61 13 28 11-30-4-59-20zm10-25l56 28 25 18-28-12-53-34zm17-22l47 42 19 24-24-19-42-47zm22-17l34 53 12 28-18-25-28-56zm25-10l20 59 4 30-11-28-13-61zm27-4l4 63-4 30-4-30 4-63zm27 4l-13 61-11 28 4-30 20-59zm25 10l-28 56-18 25 12-28 34-53zm22 17l-42 47-24 19 19-24 47-42zm17 22l-53 34-28 12 25-18 56-28zm10 25l-59 20-30 4 28-11 61-13zm4 27l-63 4-30-4 30-4 63 4zm-4 27l-61-13-28-11 30 4 59 20zm-10 25l-56-28-25-18 28 12 53 34zm-17 22l-47-42-19-24 24 19 42 47zm-22 17l-34-53-12-28 18 25 28 56zm-25 10l-20-59-4-30 11 28 13 61z"/></svg>