<svg viewBox="0 0 510 510"><path fill="#fff" d="M0 170h512v170H0z"/><path fill="#329203" d="M0 340h512v170H0z"/><path fill="#e77300" d="M0 0h512v170H0z"/><path fill="#08399c" d="M255 255c0-30-3-22-3-33 0-5 2-22 3-47 1 25 3 42 3 47 0 11-3 3-3 33 8-29 3-22 6-33 1-5 8-20 15-44-6 24-9 41-10 46-3 11-3 2-11 31 15-26 9-20 14-30 3-4 13-18 26-39-12 22-18 38-21 42-6 9-4 1-19 27 21-21 13-17 21-25 4-4 18-15 36-32-17 18-28 32-32 36-8 8-4 0-25 21 26-15 17-13 27-19 4-3 20-9 42-21-21 13-35 23-39 26-10 5-4-1-30 14 29-8 20-8 31-11 5-1 22-5 46-10-24 7-39 14-44 15-11 3-4-2-33 6 30 0 22-3 33-3 5 0 22 2 47 3-25 1-42 3-47 3-11 0-3-3-33-3 29 8 22 3 33 6 5 1 20 8 44 15-24-5-41-9-46-10-11-3-2-3-31-11 26 15 20 9 30 14 4 3 18 13 39 26-22-12-38-18-42-21-10-6-1-4-27-19 21 21 17 13 25 21 4 4 15 18 32 36-18-17-32-28-36-32-8-8 0-4-21-25 15 26 13 18 19 27 3 4 9 20 21 42-13-21-23-35-26-39-5-10 1-4-14-30 8 29 8 20 11 31 1 5 4 22 10 46-7-24-14-39-15-44-3-11 2-4-6-33 0 30 3 22 3 33 0 5-2 22-3 47-1-25-3-42-3-47 0-11 3-3 3-33-8 29-3 22-6 33-1 5-8 20-15 44 5-24 9-41 10-46 3-11 3-2 11-31-15 26-9 20-14 30-3 4-13 18-26 39 12-22 18-38 21-42 6-10 4-1 19-27-21 21-13 17-21 25-4 4-18 15-36 32 17-18 28-32 32-36 8-8 4 0 25-21-26 15-18 13-27 19-4 3-20 9-42 21 21-13 35-23 39-26 10-5 4 1 30-14-29 8-20 8-31 11-5 1-22 4-46 10 24-7 39-14 44-15 11-3 4 2 33-6-30 0-22 3-33 3-5 0-22-2-47-3 25-1 42-3 47-3 11 0 3 3 33 3-29-8-22-3-33-6-5-1-20-8-44-15 24 6 41 9 46 10 11 3 2 3 31 11-26-15-20-9-30-14-4-3-18-13-39-26 22 12 38 18 42 21 9 6 1 4 27 19-21-21-17-13-25-21-4-4-15-18-32-36 18 17 32 28 36 32 8 8 0 4 21 25-15-26-13-17-19-27-3-4-9-20-21-42 13 21 23 35 26 39 5 10-1 4 14 30-8-29-8-20-11-31-1-5-5-22-10-46 7 24 14 39 15 44 3 11-2 4 6 33zm0-81c45 0 81 36 81 81s-36 81-81 81-81-36-81-81 36-81 81-81zm0 10c-39 0-71 32-71 71s32 71 71 71 71-32 71-71-32-71-71-71z"/></svg>