<svg viewBox="0 0 800 800"><path d="M444 400L0 144v512z" fill="#fff"/><path d="M0 320c44 0 80 36 80 80s-36 80-80 80V320zm0 249V400l10 158-10 11zm20-18L0 400l28 143-8 8zm73-30H81L0 400l93 121zm26-2h-14L0 400l119 105v14zm2-26L0 400l121 81v12zm162-119l31 9 19-25 1 32 30 10-30 10-1 32-19-25-31 9 19-26-19-26zm-132 46l-9 8L0 400l151 20zm18-20l-11 10L0 400l158-10 11 10zM0 400V231l10 11L0 400zm20-151l8 8L0 400l20-151zm99 32v14L0 400l105-119h14zm-26-2L0 400l81-121h12zm28 28v12L0 400l121-93zm30 73L0 400l142-28z" fill="#fcd116"/><path d="M800 400v400H0V656l444-256z" fill="#ce1126"/><path d="M800 400H444L0 144V0h800z" fill="#0038a8"/></svg>