<svg viewBox="0 0 800 800"><path class="amz-a" d="M445 358c0 31 0 59-15 85-13 22-34 37-56 37-31 0-49-25-49-59 0-69 62-80 120-80v17zm81 196l62-53c7-5 5-15 0-22-14-20-30-37-30-74V279c0-69 0-105-36-139-31-30-82-40-121-40-76 0-163 28-180 125-2 10 6 15 12 16l78 8c7 0 13-8 14-15 7-32 32-48 65-48 18 0 35 6 45 21s10 32 10 59v10c-46 4-108 9-151 27-51 22-87 66-87 133 0 80 52 125 121 125 57 0 89-14 133-59 14 22 20 31 46 54 5 4 14 2 19-2z"/><path class="amz-arrow" d="M642 626c10-7 3-20-10-15a591 591 0 0 1-522-33c-7-4-12 3-6 9a440 440 0 0 0 538 39zm28-32c8 10-10 56-18 76-3 6 4 7 9 3 35-29 44-91 37-100s-69-16-107 10c-8 6-1 10 3 9 20-4 68-7 76 2z"/></svg>
