<svg viewBox="0 0 2000 2000" stroke-linecap="round"><path d="M282 1082l279 509 869-103-56-860-1092 454z" fill="#fff"/><path d="M1467 920c101 17 207 81 207 213 0 249-359 516-798 516-330 0-612-164-612-444 0-362 434-764 663-764 68 0 139 43 139 131 0 73-31 112-15 127 11 10 42-7 56-13 75-34 139-67 227-67 77 0 141 43 141 149 0 30-8 71-23 108-13 32 5 42 15 44zm-587-39c-279 19-495 184-482 367s249 316 528 297 495-184 482-367-249-316-528-297z" fill="#e10c10"/><path d="M1425 485c152-10 234 121 200 240" fill="none" stroke-width="109" stroke="#ff9906"/><path d="M1403 271c323-22 499 256 426 510" fill="none" stroke-width="126" stroke="#ff9906"/><path d="M1130 1181c31 125-61 255-205 291s-286-35-317-160 60-255 204-291 287 35 318 160zm-391 48c-39 26-51 77-26 114s77 45 116 19 51-78 26-115-77-44-116-18zm230-19c0-46-72-39-72 3 0 44 72 40 72-3z"/></svg>