<svg xmlns="http://www.w3.org/2000/svg" viewBox="0 0 800 800" role="img">
  <path d="M123 545c10 2 21 6 21 20 0 12-8 20-25 20-10 0-19-5-24-12l9-8c4 5 10 8 16 8 7 0 11-2 11-7 0-4-2-6-14-9s-20-7-20-19c0-11 11-18 23-18 10 0 16 4 22 10l-9 9c-4-4-8-7-14-7-7 0-9 3-9 6 0 4 3 5 13 7zm58-25c17 0 27 13 27 32s-10 33-27 33-28-14-28-33 11-32 28-32zm52 1v35c0 10 4 17 12 17s13-7 13-17v-35h13v35c0 18-10 29-26 29-15 0-25-11-25-29v-35h13zm210 12c-9 0-15 7-15 19 0 11 6 20 15 20 6 0 10-2 13-8l10 7c-4 9-12 14-23 14-16 0-27-13-27-33 0-19 11-32 27-32 12 0 19 6 23 14l-11 5c-2-4-6-6-12-6zm105-13c17 0 27 13 27 32s-10 33-27 33-27-14-27-33 10-32 27-32zm52 1v35c0 10 5 17 13 17s13-7 13-17v-35h12v35c0 18-9 29-25 29-15 0-25-11-25-29v-35h12zm-301 0l26 40v-40h12v63h-11l-27-41v41h-12v-63h12zm74 0c18 0 31 8 31 31 0 22-16 32-32 32h-18v-63h19zm117 0v50h25v13h-38v-63h13zm184 0c18 0 31 8 31 31 0 22-16 32-32 32h-19v-63h20zm-493 51c10 0 14-9 14-20s-4-19-14-19-15 8-15 19 5 20 15 20zm367 0c10 0 14-9 14-20s-4-19-14-19-14 8-14 19 4 20 14 20zm-176 0c13 0 20-9 20-20 0-13-6-19-19-19h-7v39h6zm301 0c13 0 19-9 19-20 0-13-6-19-19-19h-6v39h6zm-442-83c-1 8-10.523 6.967-11 0l-5-73 5-140c.25-6.99 10.658-7.985 11 0l6 140zm130-3l-4-70 4-176c0-11 16.75-10.994 17 0l4 176-4 70c-.627 10.964-16 12-17 0zm-13-218l5 148-5 70c-1 12-15.43 9.967-16 0l-4-70 4-148c.27-9.993 15.63-10.988 16 0zm-58 219c-.63 8.956-13.378 9.957-14 1l-5-72 5-157c.286-8.99 13.682-9.99 14 0l5 157zm455-77c0 47-38 84-85 84H425c-5-1-9-4-9-9V215c0-5 2.068-7.805 8-10 100-37 195 33 203 127 59-24 118 19 118 78zM319 263l4 153-4 71c-.565 10.024-14.438 9.968-15 0l-4-71 4-153c.287-10.992 14.74-9.993 15 0zm-116 38l6 114-6 74c-.564 6.954-9.436 6.954-10 0l-6-74 6-114c.315-5.983 9.685-5.983 10 0zm58-37l5 152-5 72c-.553 7.962-12.447 7.962-13 0l-5-72 5-152c.296-8.99 12.704-8.99 13 0zm128-40c.25-11.995 18.77-10.995 19 0l4 192-4 69c-.693 11.96-18.307 11.96-19 0l-4-69zM175 345l6 70-6 74c-.483 5.96-8.517 5.96-9 0l-6-74 6-70c.51-5.956 8.575-4.964 9 0zm-28-5l7 75-7 74c-.375 3.965-7.678 3.974-8 0l-6-74 6-75c.397-4.968 7.537-4.957 8 0zm-28 2l7 73-7 71c-.488 4.952-6.58 4.965-7 0l-6-71 6-73c.327-3.973 7-5 7 0zm-28 13l8 60-8 61c-.516 3.932-5.61 3.962-6 0l-6-61 6-59c.715-7.03 5.197-7.026 6-1zm-25 25l6 35-6 38c-.616 3.903-5.483 3.932-6 0l-5-38 5-36c1-6 5-7 6 1z"/>
</svg>
