<svg xmlns="http://www.w3.org/2000/svg" viewBox="0 0 800 800" role="img">
  <path	d="M231 534c-1 8-10.523 6.968-11 0l-5-73 5-140c.25-6.99 10.658-7.985 11 0l6 140zm130-3l-4-70 4-176c0-11 16.75-10.994 17 0l4 176-4 70c-.627 10.964-16 12-17 0zm-13-218l5 148-5 70c-1 12-15.43 9.968-16 0l-4-70 4-148c.27-9.993 15.63-10.987 16 0zm-58 219c-.63 8.956-13.378 9.957-14 1l-5-72 5-157c.286-8.99 13.682-9.99 14 0l5 157zm455-77c0 47-38 84-85 84H425c-5-1-9-4-9-9V260c0-5 2.068-7.805 8-10 100-37 195 33 203 127 59-24 118 19 118 78zM319 308l4 153-4 71c-.565 10.024-14.438 9.97-15 0l-4-71 4-153c.287-10.992 14.74-9.993 15 0zm-116 38l6 114-6 74c-.564 6.954-9.436 6.954-10 0l-6-74 6-114c.315-5.983 9.685-5.983 10 0zm58-37l5 152-5 72c-.553 7.962-12.447 7.962-13 0l-5-72 5-152c.296-8.99 12.704-8.99 13 0zm128-40c.25-11.995 18.77-10.995 19 0l4 192-4 69c-.693 11.96-18.307 11.96-19 0l-4-69zM175 390l6 70-6 74c-.483 5.96-8.517 5.96-9 0l-6-74 6-70c.51-5.956 8.575-4.964 9 0zm-28-5l7 75-7 74c-.375 3.965-7.678 3.974-8 0l-6-74 6-75c.397-4.968 7.537-4.957 8 0zm-28 2l7 73-7 71c-.488 4.952-6.58 4.965-7 0l-6-71 6-73c.327-3.974 7-5 7 0zm-28 13l8 60-8 61c-.516 3.933-5.61 3.962-6 0l-6-61 6-59c.715-7.03 5.197-7.026 6-1zm-25 25l6 35-6 38c-.616 3.902-5.483 3.932-6 0l-5-38 5-36c1-6 5-7 6 1z"/>
</svg>
