<svg viewBox="0 0 800 800" xmlns="http://www.w3.org/2000/svg">
  <path d="M0 400C0 209 0 134 67 67S208 0 400 0s266 0 333 67 67 142 67 333 0 266-67 333-141 67-333 67-266 0-333-67S0 591 0 400zm728 0c0-183 0-236-46-282S582 72 400 72s-236 0-282 46-46 99-46 282 0 236 46 282 100 46 282 46 236 0 282-46 46-99 46-282zM400 195a205 205 0 1 1-1 411 205 205 0 0 1 1-411zm0 338c74 0 133-59 133-133s-59-133-133-133-133 59-133 133 59 133 133 133zm261-346c0 26-21 48-48 48-26 0-48-22-48-48 0-27 22-48 48-48 27 0 48 21 48 48z"/>
</svg>
