<svg xmlns="http://www.w3.org/2000/svg" viewBox="0 0 200 200">
  <g transform="matrix(1 0 0 -1 0 200)">
   <path fill="#00b1f3" d="M193 83c4 -8 7 -17 7 -27c0 -31 -25 -56 -56 -56c-10 0 -19 3 -27 7c-5 -1 -11 -2 -17 -2c-53 0 -95 43 -95 95c0 6 1 11 2 17c-4 8 -7 17 -7 27c0 31 25 56 56 56c10 0 19 -3 27 -7c5 1 11 2 17 2c53 0 95 -43 95 -95c0 -6 -1 -11 -2 -17zM100 40c32 0 48 16 46 35c0 13 -6 28 -30 33l-22 5c-8 2 -18 4 -18 12s7 14 19 14c25 0 23 -17 35 -17c6 0 12 3 12 10c0 16 -24 27 -45 27c-22 0 -46 -10 -46 -35c0 -12 4 -25 28 -31l30 -7c9 -2 11 -7 11 -12c0 -8 -7 -15 -21 -15c-26 0 -23 21 -37 21c-6 0 -11 -5 -11 -11c0 -12 15 -29 49 -29z"/>
  </g>
</svg>
